# xmcd
#
# Track frame offsets:
#	150
#	18869
#	39545
#	59450
#	86056
#	105323
#	125356
#	146638
#	185650
#	209112
#	227194
#	257707
#
# Disc length: 4079 seconds
#
# Revision: 0
# Processed by: cddbd v1.5.2PL0 Copyright (c) Steve Scherf et al.
# Submitted via: EasyCDDAExtractor 12.0.0.1
#
DISCID=ac0fed0c
DTITLE=Albert King - Bluesmasters
DYEAR=1900
DGENRE=
TTITLE0=Cold Women With Warm Hearts
TTITLE1=Truckload Of Lovin'
TTITLE2=Cadillac Assembley Line
TTITLE3=Angel Of Mercy
TTITLE4=The Very Throught Of You
TTITLE5=Call My Job
TTITLE6=Good Time Charly
TTITLE7=I'm Gonna Call You Soon As The Sun Goes Down
TTITLE8=That's What The Blues Is All About
TTITLE9=Love Shock
TTITLE10=I'll Play The Blues For You
TTITLE11=Blues At Sunrise
EXTD=
EXTT0=
EXTT1=
EXTT2=
EXTT3=
EXTT4=
EXTT5=
EXTT6=
EXTT7=
EXTT8=
EXTT9=
EXTT10=
EXTT11=
PLAYORDER=
